<svg xmlns="http://www.w3.org/2000/svg" width="378" height="372" fill="none" viewBox="0 0 378 372"><g clip-path="url(#a)"><path fill="#0ABF53" d="m226.6 220.7 150 150.1h-150V220.7zM101.1 96.1 26 171.2h150.2l-75.1-75.1z"/><path fill="#0ABF53" stroke="#00112C" stroke-linecap="round" stroke-linejoin="round" stroke-miterlimit="10" d="M102.2 370.1c-41.1 0-74.4-33.3-74.4-74.4 0-41.1 33.3-74.4 74.4-74.4 41.1 0 74.4 33.3 74.4 74.4 0 41.1-33.3 74.4-74.4 74.4z"/><path stroke="#00112C" stroke-linecap="round" stroke-linejoin="round" stroke-miterlimit="10" d="M176.5 21.3H26.6v149.9h149.9V21.3zm200.2 149.9h-150v-150h75c41.4 0 75 33.6 75 75v75zm-.1 49.5h-150v150h150v-150z"/><path fill="#00112C" stroke="#00112C" stroke-linecap="round" stroke-linejoin="round" stroke-miterlimit="10" d="m109.6 281.4 14.6.7 12.2 24.5v44.6H74.6l-5.9-43.8 40.9-26z"/><path fill="#00112C" stroke="#00112C" stroke-linecap="round" stroke-linejoin="round" stroke-miterlimit="10" d="m130.7 311.8 69.9-59 12-65.2h-11L179.3 246l-55.1 36.1 6.5 29.7z"/><path stroke="#00112C" stroke-linecap="round" stroke-linejoin="round" stroke-miterlimit="10" d="M52.7 351.2h99"/><path fill="#AF7161" stroke="#00112C" stroke-linecap="round" stroke-linejoin="round" stroke-miterlimit="10" d="M214.4 167.4h-6v8.5h6v-8.5z"/><path fill="#AF7161" d="m215.2 162.5 5.8-7.4c1.7.8 2.3 2.9 1.3 4.5l-7.1 11.6 4 6.7-6.6 9.7h-11v-16.4l12.6-10.5c1.6 1.4 1.6 3.9.1 5.4l-5 5 .1 7.3"/><path stroke="#00112C" stroke-linecap="round" stroke-linejoin="round" stroke-miterlimit="10" d="m215.2 162.5 5.8-7.4c1.7.8 2.3 2.9 1.3 4.5l-7.1 11.6 4 6.7-6.6 9.7h-11v-16.4l12.6-10.5c1.6 1.4 1.6 3.9.1 5.4l-5 5 .1 7.3"/><path fill="#AF7161" stroke="#00112C" stroke-linecap="round" stroke-linejoin="round" stroke-miterlimit="10" d="M210.3 180a3.32 3.32 0 0 1 0-4.7l6-6c1.3 1.3 1.3 3.4 0 4.7l-6 6zm1.1 3.9a3.32 3.32 0 0 1 0-4.7l6-6c1.3 1.3 1.3 3.4 0 4.7l-6 6zm1.2 3.8a3.32 3.32 0 0 1 0-4.7l6-6c1.3 1.3 1.3 3.4 0 4.7l-6 6z"/><path fill="#fff" stroke="#00112C" stroke-miterlimit="10" d="M237.1 121.8h-30.4v40.8h30.4v-40.8z"/><path fill="#AF7161" d="M201.6 187.6v-16.4l12.6-10.5c1.6 1.4 1.6 3.9.1 5.4l-5 5 .1 7.3"/><path stroke="#00112C" stroke-linecap="round" stroke-linejoin="round" stroke-miterlimit="10" d="M201.6 187.6v-16.4l12.6-10.5c1.6 1.4 1.6 3.9.1 5.4l-5 5 .1 7.3"/><path fill="#00112C" stroke="#00112C" stroke-linecap="round" stroke-linejoin="round" stroke-miterlimit="10" d="M314.8 68.6a10.8 10.8 0 1 0 0-21.6 10.8 10.8 0 0 0 0 21.6z"/><path fill="#00112C" stroke="#00112C" stroke-miterlimit="10" d="M337.5 113.6s-.6-14.1-.7-29.8c0-11.3-6.7-21.4-16.8-26.4 0 0-.1 0-.1-.1-10.2-6.5-29.9 3.3-32.4 17.6-.8 4.5.1 10.9 4.2 15l-.3 23.6h46.1v.1z"/><path fill="#00112C" d="M295.2 89.5c6.4-4.2 10.2-20.9 10.2-20.9s13.9 7.5 19.3 4"/><path stroke="#00112C" stroke-linecap="round" stroke-linejoin="round" stroke-miterlimit="10" d="M295.2 89.5c6.4-4.2 10.2-20.9 10.2-20.9s13.9 7.5 19.3 4"/><path fill="#EAB79D" stroke="#00112C" stroke-linecap="round" stroke-linejoin="round" stroke-miterlimit="10" d="M354.3 102s-6.3 4-11.1 1-13-16.8-13-16.8l-9.4 11.3s13.4 12.2 10.3 17.9c-3.1 5.7-4.9 7.6-4.9 7.6s27.7 7.8 28.1-21z"/><path fill="#EAB79D" stroke="#00112C" stroke-linecap="round" stroke-linejoin="round" stroke-miterlimit="10" d="M325.6 101.9c9.7-7.7 4.7-20.5-3-30.1-7.7-9.7-18.5-13.5-24.2-9-5.7 4.6-10.2 16.8-.4 29 9.8 12.2 19.3 16.7 27.6 10.1z"/><path fill="#00112C" stroke="#00112C" stroke-linecap="round" stroke-linejoin="round" stroke-miterlimit="10" d="M323.5 72.8c.1.1.1.2.2.3-5.3 3.5-17.9-3.9-17.9-3.9s2.7 11.5-9.7 19.6c-8.9-11.7-3.5-22.7 4-27.1 6.3-3.6 16.6.8 23.4 11.1z"/><path fill="#EAB79D" d="m321.8 76.9-.4-3c-.3-1.8 1-3.5 2.9-3.7 1.4-.1 2.7.6 3.3 1.9l.5 1c1.1 2.4.2 5.2-2 6.6l-4.3-2.8z"/><path fill="#00112C" stroke="#00112C" stroke-linecap="round" stroke-linejoin="round" stroke-miterlimit="10" d="M311.6 147.1v24.1h16.8v-15.1l23.2 15.1h25.1l-.1-73.7-6.8.2c-6.4.2-12.6 2.2-17.9 5.8l-27.6 19a30.37 30.37 0 0 0-12.7 24.6z"/><path fill="#00112C" stroke="#00122C" stroke-linecap="round" stroke-miterlimit="10" d="M127.1 122.6h-52l26-26.1 26 26.1z"/><path stroke="#00112C" stroke-miterlimit="10" d="M101.1 0v44.3L94.5 46l12.3 3.5L94.5 53l12.3 3.5L94.5 60l12.3 3.5L94.5 67l12.3 3.5-5.6 1.6v25.4"/><path stroke="#00112C" stroke-linecap="round" stroke-linejoin="round" stroke-miterlimit="10" d="M60.9 357.7h82.4m-41.1 12.4c-41.1 0-74.4-33.3-74.4-74.4 0-41.1 33.3-74.4 74.4-74.4 41.1 0 74.4 33.3 74.4 74.4 0 41.1-33.3 74.4-74.4 74.4z"/><path fill="#00112C" stroke="#00112C" stroke-linecap="round" stroke-linejoin="round" stroke-miterlimit="10" d="M108.3 200.5c15.3 18.4 10.9 42.5-7.5 57.8l-9.3-43.9 16.8-13.9z"/><path fill="#00112C" stroke="#00112C" stroke-linecap="round" stroke-linejoin="round" stroke-miterlimit="10" d="M103.5 243.9s1.2 7.9 4.2 7.7c.3 0 2.3-.1 2.3-.5l-.6 11.7-26-9.3a18.8 18.8 0 0 1-2.3-30.6l27.1-22.5-11.1 21.9 6.4 21.6z"/><path fill="#AF7161" stroke="#00112C" stroke-linecap="round" stroke-linejoin="round" stroke-miterlimit="10" d="m127.4 257.3-2.6 1V282l-15.4-.7.2-29.6c-3.3 1.2-8.2.7-11.1-1.3l-4.9-3.5c-.2-.1-.3-.2-.4-.4-.7-.9-.7-2.2.3-3 1.9-1.6 4.7-1.8 6.8-.5l4.6 2.9 2.8-4-13.6-12.7 7.2-8.8 13 12.2 15.1 14.1c3.6 3.2 2.4 9-2 10.6z"/><path fill="#AF7161" d="M114.2 254.6c3.1 3.1 7.2 4.5 10.5 3.7l.5-.1"/><path stroke="#00112C" stroke-linecap="round" stroke-linejoin="round" stroke-miterlimit="10" d="M114.2 254.6c3.1 3.1 7.2 4.5 10.5 3.7l.5-.1"/><path fill="#fff" stroke="#00112C" stroke-miterlimit="10" d="M127.5 346.2H44.1v5h83.4v-5z"/><path fill="#00122C" stroke="#00112C" stroke-miterlimit="10" d="m16.4 346.2 1.5 5h26.2v-5H16.4z"/><path fill="#fff" stroke="#00112C" stroke-miterlimit="10" d="M17.9 351.2h86.2l-17.2-54.9H.7l17.2 54.9z"/></g><defs><clipPath id="a"><path fill="#fff" d="M0 0h377.2v371.3H0z"/></clipPath></defs></svg>