<svg t="1700664622976" class="icon" viewBox="0 0 1024 1024" version="1.1" xmlns="http://www.w3.org/2000/svg" p-id="7076" width="128" height="128"><path fill="currentColor" d="M957.44 193.536c0-70.144-56.832-126.976-126.976-126.976H193.536C123.392 66.56 66.56 123.392 66.56 193.536v636.416c0 70.144 56.832 126.976 126.976 126.976h636.416c70.144 0 126.976-56.832 126.976-126.976V193.536z m-61.44 638.976c0 35.328-28.672 63.488-63.488 63.488H196.608c-35.328 0-63.488-28.672-63.488-63.488V196.608C133.12 161.792 161.792 133.12 196.608 133.12h635.904c35.328 0 63.488 28.672 63.488 63.488v635.904z" p-id="7077"></path><path fill="currentColor" d="M316.928 392.192l223.232 223.232c12.288 12.288 12.288 32.256 0 44.544-12.288 12.288-32.256 12.288-44.544 0L272.384 436.736c-12.288-12.288-12.288-32.256 0-44.544 12.288-12.288 32.256-12.288 44.544 0z" p-id="7078"></path><path fill="currentColor" d="M762.88 392.192c12.288 12.288 12.288 32.256 0 44.544l-223.232 223.232c-12.288 12.288-32.256 12.288-44.544 0-12.288-12.288-12.288-32.256 0-44.544l223.232-223.232c12.288-12.288 32.256-12.288 44.544 0z" p-id="7079"></path></svg>
