<svg t="1691816417823" class="icon" viewBox="0 0 1024 1024" version="1.1" xmlns="http://www.w3.org/2000/svg" p-id="27014" width="200" height="200"><path d="M745.472 137.2672a28.16 28.16 0 0 0-24.3712-14.08H312.8832a28.1088 28.1088 0 0 0-24.3712 14.08L84.3776 490.8032a28.2112 28.2112 0 0 0 0 28.16l204.1344 353.28a28.1088 28.1088 0 0 0 24.3712 14.08h408.2176a28.16 28.16 0 0 0 24.3712-14.08l204.0832-353.28a27.9552 27.9552 0 0 0 0-28.16z m-40.6528 692.9408H329.1136L141.312 504.8832l187.8016-325.376h375.7056l187.8528 325.376z" fill="currentColor" p-id="27015"></path><path d="M517.12 337.152a167.7312 167.7312 0 1 0 167.7312 167.7312A167.936 167.936 0 0 0 517.12 337.152z m0 279.1424a111.4112 111.4112 0 1 1 111.4112-111.4112A111.5648 111.5648 0 0 1 517.12 616.2944z" fill="currentColor" p-id="27016"></path></svg>
