<svg t="1691907863169" class="icon" viewBox="0 0 1024 1024" version="1.1" xmlns="http://www.w3.org/2000/svg" p-id="4816" width="200" height="200"><path d="M511.999 873.309c-199.545 0-361.308-161.764-361.308-361.309 0-199.545 161.763-361.309 361.308-361.309S873.308 312.455 873.308 512c0 199.545-161.764 361.309-361.309 361.309z m0 65.692C747.825 939.001 939 747.826 939 512c0-235.826-191.175-427.001-427.001-427.001C276.173 84.999 84.998 276.174 84.998 512c0 235.826 191.175 427.001 427.001 427.001z m-75.711-579.018c16.028-22.935 39.419-39.907 75.741-39.907 49.55 0 73.135 20.804 85.8 40.411 6.85 10.605 11.006 21.778 13.421 31.076 2.248 8.657 2.696 14.522 2.765 15.418l0.005 0.062 0.004 0.049 0.001 0.009 0.001-0.011v0.383c0.012 3.579 0.042 12.599-7.125 26.614-7.688 15.033-24.8 37.92-63.653 65.239-37.388 22.304-55.2 50.54-61.771 80.522-3.092 14.11-3.458 27.516-3.246 38.743 0.095 4.975 0.315 9.86 0.509 14.149v0.003l0.039 0.876 0.03 0.658c0.217 4.851 0.374 8.86 0.374 12.533h65.693c0-5.316-0.226-10.671-0.44-15.465l-0.069-1.538c-0.198-4.392-0.378-8.397-0.455-12.46-0.17-9 0.23-16.569 1.734-23.435 2.554-11.652 8.949-25.086 32.038-38.631l1.121-0.658 1.065-0.744c46.254-32.305 71.821-63.094 85.52-89.883 14.014-27.406 14.328-48.206 14.328-56.906 0-10.743-4.126-47.287-26.708-82.246-24.11-37.326-67.946-70.46-140.981-70.46-61.744 0-103.732 30.972-129.587 67.968-24.986 35.752-35.57 77.614-37.983 105.921l65.456 5.578c1.673-19.637 9.476-49.691 26.373-73.868z m75.74 421.654c24.824 0 44.948-20.124 44.948-44.948 0-24.823-20.124-44.947-44.948-44.947s-44.947 20.124-44.947 44.947c0 24.824 20.123 44.948 44.947 44.948z" p-id="4817" fill="currentColor"></path></svg>
